<svg width="32" height="32" viewBox="0 0 32 32" fill="none" xmlns="http://www.w3.org/2000/svg">
  <!-- Outer Dark Vinyl Body -->
  <circle cx="16" cy="16" r="15" fill="#09090B"/>
  <circle cx="16" cy="16" r="14.5" stroke="url(#amberGlow)" stroke-width="1" stroke-opacity="0.85"/>
  
  <!-- High Contrast Grooves -->
  <circle cx="16" cy="16" r="12" stroke="#FFFFFF" stroke-opacity="0.12" stroke-width="0.75" stroke-dasharray="2 1"/>
  <circle cx="16" cy="16" r="9.25" stroke="#FFFFFF" stroke-opacity="0.18" stroke-width="0.75"/>

  <!-- Glowing Gold Radial Center Label -->
  <circle cx="16" cy="16" r="6" fill="url(#goldHub)"/>
  
  <!-- Music Note Silhouette Emblem in Spindle Center -->
  <path d="M14.5 18.5C14.5 19.3 13.8 20 13 20C12.2 20 11.5 19.3 11.5 18.5C11.5 17.7 12.2 17 13 17C13.3 17 13.6 17.1 13.8 17.3V12.8L17.5 11.8V14L14.5 14.8V18.5Z" fill="#09090B"/>

  <!-- Curved Specular Gloss Reflection -->
  <path d="M 5 16 A 11 11 0 0 1 16 5" stroke="#FFFFFF" stroke-opacity="0.45" stroke-width="1.25" stroke-linecap="round"/>
  <path d="M 27 16 A 11 11 0 0 1 16 27" stroke="#FFFFFF" stroke-opacity="0.18" stroke-width="1" stroke-linecap="round"/>

  <defs>
    <linearGradient id="amberGlow" x1="0" y1="0" x2="32" y2="32" gradientUnits="userSpaceOnUse">
      <stop stop-color="#FBBF24"/>
      <stop offset="0.5" stop-color="#F59E0B"/>
      <stop offset="1" stop-color="#D97706"/>
    </linearGradient>
    <radialGradient id="goldHub" cx="0" cy="0" r="1" gradientUnits="userSpaceOnUse" gradientTransform="translate(16 16) scale(6)">
      <stop stop-color="#FDE047"/>
      <stop offset="0.7" stop-color="#F59E0B"/>
      <stop offset="1" stop-color="#B45309"/>
    </radialGradient>
  </defs>
</svg>
